HIERARCHY
ROOT Hips
{
	OFFSET 0.000000 0.000000 0.000000
	CHANNELS 6 Xposition Yposition Zposition Zrotation Yrotation Xrotation 
	JOINT LHipJoint
	{
		OFFSET 0.000000 0.000000 0.000000
		CHANNELS 3 Zrotation Yrotation Xrotation
		JOINT LeftUpLeg
		{
			OFFSET 1.363060 -1.794630 0.839290
			CHANNELS 3 Zrotation Yrotation Xrotation
			JOINT LeftLeg
			{
				OFFSET 2.448110 -6.726130 0.000000
				CHANNELS 3 Zrotation Yrotation Xrotation
				JOINT LeftFoot
				{
					OFFSET 2.562200 -7.039590 0.000000
					CHANNELS 3 Zrotation Yrotation Xrotation
					JOINT LeftToeBase
					{
						OFFSET 0.157640 -0.433110 2.322550
						CHANNELS 3 Zrotation Yrotation Xrotation
						End Site
						{
							OFFSET 0.000000 0.000000 0.000000
						}
					}
				}
			}
		}
	}
	JOINT RHipJoint
	{
		OFFSET 0.000000 0.000000 0.000000
		CHANNELS 3 Zrotation Yrotation Xrotation
		JOINT RightUpLeg
		{
			OFFSET -1.305520 -1.794630 0.839290
			CHANNELS 3 Zrotation Yrotation Xrotation
			JOINT RightLeg
			{
				OFFSET -2.542530 -6.985550 0.000000
				CHANNELS 3 Zrotation Yrotation Xrotation
				JOINT RightFoot
				{
					OFFSET -2.568260 -7.056230 0.000000
					CHANNELS 3 Zrotation Yrotation Xrotation
					JOINT RightToeBase
					{
						OFFSET -0.164730 -0.452590 2.363150
						CHANNELS 3 Zrotation Yrotation Xrotation
						End Site
						{
							OFFSET 0.000000 0.000000 0.000000
						}
					}
				}
			}
		}
	}
	JOINT LowerBack
	{
		OFFSET 0.000000 0.000000 0.000000
		CHANNELS 3 Zrotation Yrotation Xrotation
		JOINT Spine
		{
			OFFSET 0.028270 2.035590 -0.193380
			CHANNELS 3 Zrotation Yrotation Xrotation
			JOINT Spine1
			{
				OFFSET 0.056720 2.048850 -0.042750
				CHANNELS 3 Zrotation Yrotation Xrotation
				JOINT Neck
				{
					OFFSET 0.000000 0.000000 0.000000
					CHANNELS 3 Zrotation Yrotation Xrotation
					JOINT Neck1
					{
						OFFSET -0.054170 1.746240 0.172020
						CHANNELS 3 Zrotation Yrotation Xrotation
						JOINT Head
						{
							OFFSET 0.104070 1.761360 -0.123970
							CHANNELS 3 Zrotation Yrotation Xrotation
							End Site
							{
								OFFSET 0.000000 0.000000 0.000000
							}
						}
					}
				}
				JOINT LeftShoulder
				{
					OFFSET 0.000000 0.000000 0.000000
					CHANNELS 3 Zrotation Yrotation Xrotation
					JOINT LeftArm
					{
						OFFSET 3.362410 1.200890 -0.311210
						CHANNELS 3 Zrotation Yrotation Xrotation
						JOINT LeftForeArm
						{
							OFFSET 4.983000 -0.000000 -0.000000
							CHANNELS 3 Zrotation Yrotation Xrotation
							JOINT LeftHand
							{
								OFFSET 3.483560 -0.000000 -0.000000
								CHANNELS 3 Zrotation Yrotation Xrotation
								JOINT LeftFingerBase
								{
									OFFSET 0.000000 0.000000 0.000000
									CHANNELS 3 Zrotation Yrotation Xrotation
									JOINT LeftHandIndex1
									{
										OFFSET 0.715260 -0.000000 -0.000000
										CHANNELS 3 Zrotation Yrotation Xrotation
										End Site
										{
											OFFSET 0.000000 0.000000 0.000000
										}
									}
								}
								JOINT LThumb
								{
									OFFSET 0.000000 0.000000 0.000000
									CHANNELS 3 Zrotation Yrotation Xrotation
									End Site
									{
										OFFSET 0.000000 0.000000 0.000000
									}
								}
							}
						}
					}
				}
				JOINT RightShoulder
				{
					OFFSET 0.000000 0.000000 0.000000
					CHANNELS 3 Zrotation Yrotation Xrotation
					JOINT RightArm
					{
						OFFSET -3.136600 1.374050 -0.404650
						CHANNELS 3 Zrotation Yrotation Xrotation
						JOINT RightForeArm
						{
							OFFSET -5.241900 -0.000000 -0.000000
							CHANNELS 3 Zrotation Yrotation Xrotation
							JOINT RightHand
							{
								OFFSET -3.444170 -0.000000 -0.000000
								CHANNELS 3 Zrotation Yrotation Xrotation
								JOINT RightFingerBase
								{
									OFFSET 0.000000 0.000000 0.000000
									CHANNELS 3 Zrotation Yrotation Xrotation
									JOINT RightHandIndex1
									{
										OFFSET -0.622530 -0.000000 -0.000000
										CHANNELS 3 Zrotation Yrotation Xrotation
										End Site
										{
											OFFSET 0.000000 0.000000 0.000000
										}
									}
								}
								JOINT RThumb
								{
									OFFSET 0.000000 0.000000 0.000000
									CHANNELS 3 Zrotation Yrotation Xrotation
									End Site
									{
										OFFSET 0.000000 0.000000 0.000000
									}
								}
							}
						}
					}
				}
			}
		}
	}
}
MOTION
Frames: 4
Frame Time: 0.008333
49.265951 17.331910 1.275653 9.200083 -3.170945 -9.742207 2.489437 -2.223838 -1.701886 -32.687943 7.846160 13.322999 -1.746021 3.686210 7.798515 0.093479 3.061315 -10.670153 0.081200 -1.838500 -5.059500 -4.783730 3.429605 -5.283274 12.327627 -1.565704 -9.278457 -8.035081 -17.847422 53.481106 -0.383227 -2.200887 -14.008196 -1.074500 -6.589200 18.503800 -11.559059 1.162962 13.222646 -0.382924 0.613091 -1.185150 0.377145 -0.064635 3.545197 -1.867537 -0.848925 -17.480155 6.539653 -0.917276 12.466952 0.048500 0.232800 12.565800 6.306989 -0.880403 -0.287544 -86.867879 -12.236711 44.875564 20.783141 -32.567179 -6.619463 -0.287329 0.682047 4.214258 19.185069 -23.496439 -8.251400 -7.125000 0.000000 0.000000 -6.024100 4.666400 5.545400 -6.805218 2.417556 2.201410 89.258963 -12.080831 21.962842 -13.592931 27.122622 -3.330869 0.195124 -2.643737 15.936441 -5.452654 -32.565480 3.214100 7.125000 0.000000 0.000000 27.502100 -57.958700 -9.175500 
49.266053 17.319821 1.401773 9.369072 -2.934115 -9.442254 2.502201 -2.207223 -1.708607 -32.908316 7.862375 13.605148 -1.751142 3.611729 7.595757 0.138353 2.715871 -10.917117 0.080400 -1.829200 -5.033800 -4.787908 3.378586 -5.221685 11.904622 -2.076531 -10.355373 -7.426431 -17.289259 51.093658 -0.417371 -2.241049 -14.517876 -1.316700 -7.268000 20.511700 -11.720281 1.035194 13.073892 -0.386288 0.427948 -1.230233 0.436572 -0.152661 3.532749 -1.795580 -0.989886 -17.621224 6.519824 -1.128788 12.536093 -0.006100 0.156400 12.653200 6.298880 -0.887889 -0.310700 -86.806756 -12.643577 45.221876 21.091670 -32.898302 -6.784028 -0.273992 0.688233 3.916282 18.745544 -23.926033 -8.182000 -7.125000 0.000000 0.000000 -6.343300 4.287800 5.888200 -6.792915 2.458717 2.208062 89.222774 -12.605352 21.691538 -13.730777 27.241255 -3.359751 0.269405 -2.648125 15.073501 -4.819034 -32.545322 2.911100 7.125000 0.000000 0.000000 28.085400 -57.820100 -9.295200 
49.267692 17.307014 1.541418 9.541658 -2.983296 -9.156204 2.555734 -2.181258 -1.719869 -33.122176 8.190311 13.834238 -1.751663 3.533374 7.375918 0.168011 2.505230 -11.113512 0.106900 -2.108500 -5.805600 -4.886099 3.298036 -5.164226 12.322461 -2.215628 -11.205285 -6.733782 -16.693892 48.377351 -0.348905 -4.490286 -14.933363 -0.127300 -2.300300 6.336300 -11.863867 0.985419 12.737884 -0.399005 0.373858 -1.261092 0.510589 -0.179018 3.618645 -1.742502 -1.092111 -17.770207 6.545307 -1.277700 12.633583 -0.020500 0.111200 12.750000 6.282917 -0.883535 -0.332644 -86.716230 -12.964354 45.761491 21.451448 -33.288410 -6.977006 -0.276065 0.686516 3.317516 18.613572 -24.041937 -8.155600 -7.125000 0.000000 0.000000 -6.437700 4.188900 5.988900 -6.752127 2.496673 2.224377 89.074443 -13.341725 21.861303 -14.146443 27.676387 -3.475312 0.334428 -2.645847 13.850374 -4.709693 -32.670261 2.871500 7.125000 0.000000 0.000000 28.284200 -57.906600 -9.428400 
49.262160 17.307219 1.684341 9.701379 -3.027759 -9.209023 2.603686 -2.161708 -1.720997 -33.175875 8.859065 14.340544 -1.737668 3.438044 7.143727 0.193362 2.239578 -11.109014 0.176900 -2.709600 -7.471100 -4.972135 3.280559 -5.189243 12.405290 -2.579708 -11.426394 -6.055286 -15.996581 45.498184 -0.370287 -5.047280 -15.515909 -0.011300 -0.686200 1.885600 -12.110016 0.976346 12.744397 -0.383264 0.341008 -1.259789 0.726856 -0.211412 3.643601 -1.838534 -1.137833 -17.812316 6.650161 -1.301369 12.666672 0.049600 0.107000 12.780400 6.279484 -0.885192 -0.343177 -86.706041 -13.222196 46.305179 21.855551 -33.725794 -7.196032 -0.287292 0.681292 2.763517 18.851701 -23.870077 -8.212600 -7.125000 0.000000 0.000000 -6.273500 4.329200 5.817700 -6.737442 2.528324 2.242237 89.125465 -13.799930 21.296162 -14.186060 27.688386 -3.499259 0.281224 -2.638326 13.429312 -5.908599 -32.684968 3.441500 7.125000 0.000000 0.000000 27.157100 -58.140500 -9.169700 
